<svg xmlns="http://www.w3.org/2000/svg" x="0px" y="0px"
	 viewBox="0 0 24 20" style="enable-background:new 0 0 24 20;" xml:space="preserve">
<path d="M19.4,15H10c-1.1,0-2.1-0.7-2.4-1.8L4.4,2.1C4.2,1.4,3.7,1,3,1H0.5C0.2,1,0,0.8,0,0.5S0.2,0,0.5,0H3c1.1,0,2.1,0.7,2.4,1.8
	L6,4h16.5c0.5,0,0.9,0.2,1.2,0.6C24,5,24.1,5.5,23.9,5.9l-2.2,7.4C21.4,14.3,20.5,15,19.4,15z M6.3,5l2.3,7.9C8.8,13.6,9.3,14,10,14
	h9.4c0.6,0,1.2-0.4,1.4-1L23,5.6c0-0.2,0-0.3-0.1-0.4C22.8,5.1,22.7,5,22.5,5L6.3,5z"/>
<path d="M11,20c-1.1,0-2-0.9-2-2s0.9-2,2-2s2,0.9,2,2S12.1,20,11,20z M11,17c-0.6,0-1,0.4-1,1s0.4,1,1,1s1-0.4,1-1S11.6,17,11,17z"
	/>
<path d="M18,20c-1.1,0-2-0.9-2-2s0.9-2,2-2s2,0.9,2,2S19.1,20,18,20z M18,17c-0.6,0-1,0.4-1,1s0.4,1,1,1s1-0.4,1-1S18.6,17,18,17z"
	/>
</svg>
